The Sixth Sense [1999] 720P BRRip[Dual-Audio][Eng-Hindi]


General
Complete name                    : The Sixth Sense [1999] 720P
IMDB Rating                      : 8.2/10   238,293 votes
Format                           : Matroska
File size                        : 1.95 GiB
Duration                         : 1h 47mn
Overall bit rate                 : 2 604 Kbps
Encoded date                     : UTC 2010-03-31 19:36:06
Writing application              : mkvmerge v3.3.0 (\\\'Language\\\') built on Mar 24 2010 14:59:24
Writing library                  : libebml v0.8.0 + libmatroska v0.9.0

Video
ID                               : 1
Format                           : AVC
Format/Info                      : Advanced Video Codec
Format profile                   : High@L4.1
Format settings, CABAC           : Yes
Format settings, ReFrames        : 4 frames
Muxing mode                      : Container profile=Unknown@4.1
Codec ID                         : V_MPEG4/ISO/AVC
Duration                         : 1h 47mn
Bit rate                         : 2 282 Kbps
Width                            : 1 280 pixels
Height                           : 694 pixels
Display aspect ratio             : 16:9
Frame rate                       : 23.976 fps
Color space                      : YUV
Chroma subsampling               : 4:2:0
Bit depth                        : 8 bits
Scan type                        : Progressive
Bits/(Pixel*Frame)               : 0.107
Stream size                      : 1.67 GiB (86%)

Audio #1
ID                               : 3
Format                           : MPEG Audio
Format version                   : Version 1
Format profile                   : Layer 3
Mode                             : Joint stereo
Mode extension                   : MS Stereo
Codec ID                         : A_MPEG/L3
Codec ID/Hint                    : MP3
Duration                         : 1h 47mn
Bit rate mode                    : Constant
Bit rate                         : 160 Kbps
Channel(s)                       : 2 channels
Sampling rate                    : 48.0 KHz
Stream size                      : 123 MiB (6%)
Title                            : The Sixth Sense - English And Hindi
Language                         : English And Hindi

Audio #2
ID                               : 4
Format                           : MPEG Audio
Format version                   : Version 1
Format profile                   : Layer 3
Mode                             : Joint stereo
Codec ID                         : A_MPEG/L3
Codec ID/Hint                    : MP3
Duration                         : 1h 47mn
Bit rate mode                    : Constant
Bit rate                         : 160 Kbps
Channel(s)                       : 2 channels
Sampling rate                    : 48.0 KHz
Stream size                      : 123 MiB (6%)
Title                            : The Sixth Sense - Hindi
Language                         : Hindi

Text
ID                               : 2
Format                           : SSA
Codec ID                         : S_TEXT/SSA
Codec ID/Info                    : Sub Station Alpha


Screens:  
http://img706.imageshack.us/img706/844/thesixthsense1999dualau.jpg  
http://img214.imageshack.us/img214/844/thesixthsense1999dualau.jpg  
http://img844.imageshack.us/img844/844/thesixthsense1999dualau.jpg  
http://img85.imageshack.us/img85/844/thesixthsense1999dualau.jpg  
http://img80.imageshack.us/img80/844/thesixthsense1999dualau.jpg  
http://img163.imageshack.us/img163/844/thesixthsense1999dualau.jpg  
http://img827.imageshack.us/img827/844/thesixthsense1999dualau.jpg  
http://img718.imageshack.us/img718/844/thesixthsense1999dualau.jpg


Thanks Desi Rocker